<?xml version="1.0" encoding="UTF-8" standalone="no"?>
<svg
   height="16px"
   viewBox="0 0 16 16"
   width="16px"
   version="1.1"
   id="svg2"
   xmlns="http://www.w3.org/2000/svg"
   xmlns:svg="http://www.w3.org/2000/svg">
  <defs
     id="defs2" />
  <path
     id="path1-6"
     d="M 8 0 C 3.5781251 0 0 3.578125 0 8 C 0 12.421875 3.5781251 16 8 16 C 12.421875 16 16 12.421875 16 8 C 16 3.578125 12.421875 0 8 0 z M 3.6972656 3.6015625 A 0.1090587 0.1090587 0 0 1 3.7109375 3.6015625 L 7.3867188 3.6015625 C 7.7835917 3.6015625 8.109375 3.9273458 8.109375 4.3242188 C 8.109375 4.7210918 7.783171 5.0449219 7.3867188 5.0449219 L 6.0644531 5.0449219 L 9.1210938 8.1035156 L 10.953125 9.9355469 L 10.953125 8.6132812 C 10.953125 8.2164085 11.278908 7.890625 11.675781 7.890625 C 12.072654 7.890625 12.398438 8.2164083 12.398438 8.6132812 L 12.398438 12.289062 A 0.1090587 0.1090587 0 0 1 12.289062 12.398438 L 8.6132812 12.398438 C 8.2164082 12.398438 7.890625 12.072654 7.890625 11.675781 C 7.890625 11.278908 8.2164085 10.953125 8.6132812 10.953125 L 9.9355469 10.953125 L 8.1035156 9.1210938 L 5.0449219 6.0644531 L 5.0449219 7.3867188 C 5.0449219 7.7831709 4.7210919 8.109375 4.3242188 8.109375 C 3.927346 8.109375 3.6015625 7.7835919 3.6015625 7.3867188 L 3.6015625 3.7109375 A 0.1090587 0.1090587 0 0 1 3.6972656 3.6015625 z " />
</svg>
