<?xml version="1.0" encoding="UTF-8" standalone="no"?>
<svg
   height="15.976562px"
   viewBox="0 0 16 15.976562"
   width="16px"
   version="1.1"
   id="svg1216"
   sodipodi:docname="stroke-2-symbolic.svg"
   inkscape:version="1.4.4 (dcaf3e7d9e, 2026-05-05)"
   xmlns:inkscape="http://www.inkscape.org/namespaces/inkscape"
   xmlns:sodipodi="http://sodipodi.sourceforge.net/DTD/sodipodi-0.dtd"
   xmlns="http://www.w3.org/2000/svg"
   xmlns:svg="http://www.w3.org/2000/svg">
  <defs
     id="defs1220" />
  <sodipodi:namedview
     id="namedview1218"
     pagecolor="#ffffff"
     bordercolor="#666666"
     borderopacity="1.0"
     inkscape:showpageshadow="2"
     inkscape:pageopacity="0.0"
     inkscape:pagecheckerboard="0"
     inkscape:deskcolor="#d1d1d1"
     showgrid="false"
     inkscape:zoom="26.444163"
     inkscape:cx="2.6281792"
     inkscape:cy="12.649294"
     inkscape:window-width="2560"
     inkscape:window-height="1440"
     inkscape:window-x="0"
     inkscape:window-y="0"
     inkscape:window-maximized="0"
     inkscape:current-layer="svg1216" />
  <path
     style="baseline-shift:baseline;display:inline;overflow:visible;vector-effect:none;fill:#222222;enable-background:accumulate;stop-color:#000000;stop-opacity:1;opacity:1"
     d="M 10.960938,1.0429687 C 8.0640702,1.0590971 5.5993282,3.2038466 3.7753906,5.1953125 1.951453,7.1867784 0.75585937,9.1679688 0.75585937,9.1679688 L 2.4121094,10.169922 c 0,0 1.1140114,-1.834979 2.7910156,-3.6660158 1.6205262,-1.7693711 3.7443046,-3.3358596 5.570313,-3.4531249 -0.04508,0.1376438 -0.02269,0.1118814 -0.16211,0.3496093 C 10.03787,4.3782329 8.7869948,5.8684254 7.5546875,7.3007812 6.3223802,8.7331371 5.1171349,10.086279 4.4765625,11.195313 4.3164194,11.472571 4.1845191,11.73386 4.1074219,12.054688 c -0.077097,0.320827 -0.099362,0.812038 0.2285156,1.222656 0.3278771,0.410618 0.8038277,0.504144 1.1621094,0.507812 0.3582817,0.0037 0.7031232,-0.06559 1.1132812,-0.179687 1.342777,-0.373548 2.5894394,-1.323693 3.7421879,-2.158203 0.4292,-0.310712 0.797859,-0.562716 1.162109,-0.808594 -0.03048,0.06978 -0.0347,0.09904 -0.06641,0.169922 -0.261379,0.584381 -0.552424,1.208175 -0.751953,1.789062 -0.09977,0.290444 -0.181174,0.565149 -0.207032,0.888672 -0.02586,0.323523 0.0018,0.8487 0.46875,1.21875 0.497907,0.394539 1.143021,0.363696 1.574219,0.228516 0.431198,-0.13518 0.78464,-0.355534 1.121094,-0.591797 0.672907,-0.472527 1.294027,-1.061327 1.566406,-1.279297 l -1.210937,-1.511719 c -0.342091,0.273756 -0.771671,0.648423 -1.183594,0.972657 0.131826,-0.309502 0.238374,-0.58343 0.390625,-0.923829 0.268104,-0.599418 0.531399,-1.174106 0.666016,-1.7499996 0.06731,-0.2879466 0.15661,-0.5867165 -0.01953,-1.0507813 C 13.77521,8.5667957 13.563837,8.2966773 13.296875,8.1582031 13.029913,8.019729 12.767402,8.0066073 12.558594,8.0273438 11.905278,8.0922238 11.42524,8.3835864 10.888672,8.71875 10.352104,9.0539136 9.7913621,9.4643744 9.21875,9.8789063 8.3510823,10.507038 7.5685869,10.932568 6.8496094,11.289063 7.4261764,10.50676 8.0851288,9.6508603 9.0214844,8.5625 10.257641,7.12567 11.536994,5.6479873 12.28125,4.3789062 12.653378,3.7443657 12.985899,3.1808095 12.855469,2.3730469 12.790254,1.9691656 12.49766,1.5216458 12.123047,1.3046875 11.748434,1.0877292 11.361993,1.0407359 10.960938,1.0429687 Z"
     id="path3052" />
</svg>
