<?xml version="1.0" encoding="UTF-8" standalone="no"?>
<svg
   height="15.976562px"
   viewBox="0 0 16 15.976562"
   width="16px"
   version="1.1"
   id="svg1216"
   sodipodi:docname="stroke-3-symbolic.svg"
   inkscape:version="1.4.4 (dcaf3e7d9e, 2026-05-05)"
   xmlns:inkscape="http://www.inkscape.org/namespaces/inkscape"
   xmlns:sodipodi="http://sodipodi.sourceforge.net/DTD/sodipodi-0.dtd"
   xmlns="http://www.w3.org/2000/svg"
   xmlns:svg="http://www.w3.org/2000/svg">
  <defs
     id="defs1220" />
  <sodipodi:namedview
     id="namedview1218"
     pagecolor="#ffffff"
     bordercolor="#666666"
     borderopacity="1.0"
     inkscape:showpageshadow="2"
     inkscape:pageopacity="0.0"
     inkscape:pagecheckerboard="0"
     inkscape:deskcolor="#d1d1d1"
     showgrid="false"
     inkscape:zoom="26.444163"
     inkscape:cx="2.6281792"
     inkscape:cy="12.649294"
     inkscape:window-width="2560"
     inkscape:window-height="1440"
     inkscape:window-x="0"
     inkscape:window-y="0"
     inkscape:window-maximized="0"
     inkscape:current-layer="svg1216" />
  <path
     style="baseline-shift:baseline;display:inline;overflow:visible;vector-effect:none;fill:#222222;enable-background:accumulate;stop-color:#000000;stop-opacity:1;opacity:1"
     d="M 10.958984,0.59179687 C 7.8226098,0.60925871 5.3014499,2.8618693 3.4433594,4.890625 1.5852689,6.9193807 0.37109375,8.9335938 0.37109375,8.9335938 L 2.796875,10.402344 c 0,0 1.0954299,-1.8019565 2.7382812,-3.5957034 C 6.7686871,5.4598102 8.2480391,4.4676943 9.6230469,3.9375 8.9917547,4.8316926 8.1986965,5.8619742 7.2128906,7.0078125 c -1.2314125,1.4313159 -2.4354863,2.7671718 -3.125,3.9609375 -0.1723784,0.298441 -0.3237943,0.588577 -0.4179687,0.980469 -0.094174,0.391892 -0.1319054,1.050376 0.3144531,1.609375 0.4463585,0.558998 1.0788754,0.671389 1.5078125,0.675781 0.4289371,0.0044 0.8045683,-0.07466 1.2382812,-0.195312 1.4367778,-0.399698 2.6523504,-1.330374 3.7773443,-2.148438 -0.07741,0.189869 -0.171171,0.370855 -0.236329,0.560547 -0.106087,0.308852 -0.199203,0.608811 -0.230468,1 -0.03127,0.391189 -0.0035,1.096644 0.638672,1.605469 0.645439,0.511443 1.4802,0.465923 1.988281,0.30664 0.50808,-0.159283 0.887572,-0.401955 1.24414,-0.652343 0.713138,-0.500777 1.352827,-1.107204 1.589844,-1.296875 l -1.691406,-2.111329 c 0.193584,-0.440006 0.399397,-0.871049 0.511719,-1.3515621 0.07612,-0.3256499 0.199207,-0.6847502 -0.03906,-1.3125 C 14.164068,8.324797 13.871699,7.9505411 13.503906,7.7597656 13.136113,7.5689902 12.780989,7.5535313 12.513672,7.5800781 11.71089,7.6598014 11.208557,7.9892357 10.650391,8.3378906 10.092224,8.6865456 9.5268159,9.1017262 8.9550781,9.515625 8.8684729,9.5783212 8.8158783,9.588313 8.7285156,9.6503906 8.9940699,9.3363908 9.0852456,9.1805929 9.3632813,8.8574219 10.600332,7.419552 11.885966,5.9441979 12.669922,4.6074219 13.0619,3.9390338 13.467044,3.3304616 13.300781,2.3007813 13.21765,1.7859411 12.825647,1.1928456 12.347656,0.91601563 11.869665,0.63918564 11.408083,0.5892965 10.958984,0.59179687 Z"
     id="path3052" />
</svg>
