<?xml version="1.0" encoding="UTF-8" standalone="no"?>
<svg
   height="15.976562px"
   viewBox="0 0 16 15.976562"
   width="16px"
   version="1.1"
   id="svg1216"
   xmlns="http://www.w3.org/2000/svg"
   xmlns:svg="http://www.w3.org/2000/svg">
  <defs
     id="defs1220" />
  <path
     style="color:#000000;fill:#222222;-inkscape-stroke:none"
     d="M 10.964844,1.5429687 C 8.3340983,1.5576155 5.9305194,3.5831723 4.1445312,5.5332031 2.3585431,7.4832339 1.1835937,9.4257813 1.1835937,9.4257813 l 0.8007813,0.484375 c 0,0 1.1346592,-1.8716727 2.8496094,-3.7441407 1.7149502,-1.872468 4.004148,-3.6756268 6.1367186,-3.6875 0.249787,-0.00139 0.403087,0.040566 0.472656,0.076172 0.06957,0.035606 0.07038,0.042349 0.08594,0.091797 0.03112,0.098896 -0.01089,0.4723431 -0.248047,0.9707031 C 10.806945,4.6139076 9.7245634,6.0521152 8.609375,7.4492187 7.4941866,8.8463223 6.3500766,10.208009 5.6972656,11.207031 5.5340629,11.456787 5.3998044,11.6838 5.3027344,11.898438 c -0.09707,0.214637 -0.173243,0.41322 -0.1484375,0.673828 0.012403,0.130303 0.064308,0.283448 0.171875,0.402343 0.1075669,0.118895 0.2515228,0.186173 0.3808593,0.214844 0.2586731,0.05734 0.4886451,0.01369 0.7695313,-0.06445 2.0365992,-0.566563 3.3538859,-1.505618 4.2968755,-2.292969 0.471494,-0.393675 0.853324,-0.747651 1.171875,-0.9921872 0.218841,-0.1679935 0.361608,-0.2056515 0.517578,-0.2636719 -0.08656,0.3390988 -0.303186,0.8708351 -0.556641,1.4375001 -0.263115,0.588264 -0.55085,1.206113 -0.736328,1.746094 -0.09274,0.26999 -0.161792,0.517287 -0.181641,0.765625 -0.01985,0.248338 0.0088,0.571253 0.28125,0.787109 0.33398,0.264644 0.769462,0.250977 1.115235,0.142578 0.345772,-0.108399 0.666365,-0.300916 0.980468,-0.521484 0.628207,-0.441137 1.231299,-1.012307 1.542969,-1.261719 l -0.585937,-0.730469 c -0.385223,0.308272 -0.949613,0.842233 -1.494141,1.22461 -0.272264,0.191188 -0.538753,0.338218 -0.724609,0.396484 -0.13114,0.04111 -0.145003,0.02176 -0.177735,0.01172 0.0116,-0.110488 0.05308,-0.289003 0.128907,-0.509766 0.159174,-0.463403 0.440664,-1.074388 0.707031,-1.669922 0.266367,-0.595534 0.519734,-1.168048 0.634765,-1.660156 C 13.454,9.4883211 13.501641,9.2587548 13.394531,8.9765625 13.340976,8.8354663 13.223287,8.6838771 13.068359,8.6035156 12.913432,8.5231542 12.75122,8.5111102 12.607422,8.5253906 12.139168,8.5718923 11.750269,8.8095805 11.375,9.0976563 10.999731,9.385732 10.622205,9.738908 10.173828,10.113281 c -0.8967535,0.748747 -2.0669136,1.585735 -3.9492186,2.109375 -0.02336,0.0065 -0.013947,9.29e-4 -0.035156,0.0059 0.066889,-0.13864 0.1584405,-0.306881 0.2910156,-0.509766 C 7.0700811,10.816443 8.2176378,9.4415451 9.3417969,8.0332031 10.465956,6.6248612 11.569938,5.1900605 12.126953,4.0195312 12.405461,3.4342666 12.590531,2.9012297 12.421875,2.3652344 12.337547,2.0972367 12.13195,1.8542118 11.871094,1.7207031 11.610238,1.5871944 11.310471,1.5410445 10.964844,1.5429687 Z"
     id="path3052" />
</svg>
