<?xml version="1.0" encoding="UTF-8" standalone="no"?>
<svg
   height="15.976562px"
   viewBox="0 0 16 15.976562"
   width="16px"
   version="1.1"
   id="svg1216"
   sodipodi:docname="stroke-1-symbolic.svg"
   inkscape:version="1.4.4 (dcaf3e7d9e, 2026-05-05)"
   xmlns:inkscape="http://www.inkscape.org/namespaces/inkscape"
   xmlns:sodipodi="http://sodipodi.sourceforge.net/DTD/sodipodi-0.dtd"
   xmlns="http://www.w3.org/2000/svg"
   xmlns:svg="http://www.w3.org/2000/svg">
  <defs
     id="defs1220" />
  <sodipodi:namedview
     id="namedview1218"
     pagecolor="#ffffff"
     bordercolor="#666666"
     borderopacity="1.0"
     inkscape:showpageshadow="2"
     inkscape:pageopacity="0.0"
     inkscape:pagecheckerboard="0"
     inkscape:deskcolor="#d1d1d1"
     showgrid="false"
     inkscape:zoom="26.444163"
     inkscape:cx="2.647087"
     inkscape:cy="12.649294"
     inkscape:window-width="2560"
     inkscape:window-height="1440"
     inkscape:window-x="0"
     inkscape:window-y="0"
     inkscape:window-maximized="0"
     inkscape:current-layer="svg1216" />
  <path
     style="baseline-shift:baseline;display:inline;overflow:visible;vector-effect:none;fill:#222222;enable-background:accumulate;stop-color:#000000;stop-opacity:1;opacity:1"
     d="M 10.962891,1.3925781 C 8.2522057,1.4076699 5.8305918,3.4691622 4.0332031,5.4316406 2.2358145,7.3941191 1.0546875,9.3476562 1.0546875,9.3476563 l 1.0585938,0.640625 c 0,0 1.128478,-1.860679 2.8320312,-3.7207032 1.7035532,-1.8600242 3.9727548,-3.6272438 6.0253905,-3.6386718 0.196225,-0.00109 0.266721,0.027539 0.302735,0.041016 -0.0038,0.058376 -0.07144,0.4172192 -0.359375,0.9082031 -0.60432,1.0304653 -1.8607477,2.5180076 -3.0937505,3.9511719 -1.2330028,1.4331642 -2.4384879,2.7966781 -3.0410156,3.8398441 -0.150632,0.260791 -0.2682091,0.501992 -0.3320313,0.767578 -0.063822,0.265586 -0.073665,0.626601 0.1621094,0.921875 0.2357749,0.295273 0.5872677,0.373847 0.890625,0.376953 0.3033573,0.0031 0.6237775,-0.05701 1.015625,-0.166016 1.2344446,-0.34341 2.4814238,-1.271942 3.632813,-2.105468 0.575694,-0.416764 1.121595,-0.812002 1.582031,-1.09961 0.220039,-0.1374457 0.301999,-0.1421189 0.470703,-0.2187499 -0.108566,0.3184199 -0.233165,0.6617229 -0.431641,1.1054689 -0.262594,0.587098 -0.550535,1.207497 -0.740234,1.759766 -0.09485,0.276134 -0.169753,0.531812 -0.191406,0.802734 -0.02165,0.270922 0.007,0.653842 0.33789,0.916016 0.38322,0.303661 0.882474,0.286365 1.253907,0.169921 0.371432,-0.116443 0.70262,-0.319638 1.023437,-0.544921 0.641634,-0.450567 1.24896,-1.025658 1.548828,-1.265625 l -0.773437,-0.964844 c -0.397025,0.317716 -0.955227,0.845802 -1.486328,1.21875 -0.23819,0.16726 -0.452557,0.276808 -0.613282,0.33789 0.02142,-0.08957 0.02688,-0.146824 0.06836,-0.267578 0.154954,-0.451116 0.434282,-1.059549 0.701172,-1.65625 0.266889,-0.596701 0.523616,-1.170224 0.644531,-1.6874997 0.06046,-0.2586378 0.120033,-0.510833 -0.0078,-0.8476563 C 13.471233,8.7534633 13.3253,8.5665675 13.136719,8.46875 12.948138,8.3709325 12.755123,8.3587803 12.591797,8.375 c -0.537128,0.053342 -0.9978,0.3159491 -1.517578,0.640625 -0.519778,0.3246759 -1.077099,0.7314605 -1.6503909,1.146484 -1.1465837,0.830048 -2.3867302,1.679123 -3.2382812,1.916016 -0.1997266,0.05556 -0.2866767,0.057 -0.4101563,0.07422 0.029761,-0.06247 0.032217,-0.08796 0.076172,-0.164063 C 6.3196237,11.17792 7.5223515,9.771959 8.7578125,8.3359375 9.9932735,6.899916 11.267074,5.419583 11.980469,4.203125 12.337166,3.594896 12.614294,3.062988 12.511719,2.4277344 12.460431,2.1101076 12.241517,1.7778386 11.947266,1.6074219 11.653014,1.4370052 11.326599,1.3905532 10.962891,1.3925781 Z"
     id="path3052" />
</svg>
